<?xml version="1.0" encoding="UTF-8"?>
<svg width="17px" height="17px" viewBox="0 0 17 17" version="1.1" xmlns="http://www.w3.org/2000/svg" xmlns:xlink="http://www.w3.org/1999/xlink">
    <!-- Generator: Sketch 49.1 (51147) - http://www.bohemiancoding.com/sketch -->
    <title>004-phone-receiver</title>
    <desc>Created with Sketch.</desc>
    <defs>
        <polygon id="path-1" points="0 0.0245269978 16.9810937 0.0245269978 16.9810937 16.9943823 0 16.9943823"></polygon>
    </defs>
    <g id="Symbols" stroke="none" stroke-width="1" fill="none" fill-rule="evenodd">
        <g id="Footer" transform="translate(-694.000000, -174.000000)">
            <g id="Group-5" transform="translate(62.000000, 0.000000)">
                <g id="004-phone-receiver" transform="translate(640.500000, 182.500000) scale(-1, 1) translate(-640.500000, -182.500000) translate(632.000000, 174.000000)">
                    <g>
                        <mask id="mask-2" fill="white">
                            <use xlink:href="#path-1"></use>
                        </mask>
                        <g id="Clip-2"></g>
                        <path d="M16.9730497,13.4170756 C17.0088855,13.6927106 16.924987,13.9323996 16.7213175,14.1361793 L14.3304125,16.5089093 C14.2225378,16.6287905 14.0817279,16.7307905 13.9080194,16.8145421 C13.7342009,16.8984406 13.5635032,16.952378 13.3957063,16.9763175 C13.3838099,16.9763175 13.3476436,16.9794752 13.2877214,16.9854968 C13.2279093,16.9913715 13.1500324,16.9943823 13.0542009,16.9943823 C12.8264449,16.9943823 12.4578423,16.9555356 11.94854,16.8776587 C11.4390907,16.799635 10.8160389,16.6078618 10.0789806,16.3023758 C9.34192225,15.9967063 8.5060216,15.5381836 7.57116847,14.9270648 C6.6364622,14.3160562 5.64165011,13.4769978 4.58706263,12.4103672 C3.74815119,11.5834989 3.05309719,10.7925032 2.5017905,10.037527 C1.95044708,9.28236717 1.50712527,8.58430238 1.1714946,7.94322246 C0.835900648,7.30195896 0.584168467,6.7208013 0.416518359,6.19941901 C0.248684665,5.67807343 0.134825054,5.22873002 0.0748660907,4.8512419 C0.0149071274,4.47371706 -0.00903239741,4.17696976 0.00301079914,3.96125702 C0.0149071274,3.74554428 0.0209287257,3.62580994 0.0209287257,3.60183369 C0.0449049676,3.43403672 0.0988056156,3.26322894 0.182740821,3.08952052 C0.266639309,2.91570194 0.368455724,2.77485529 0.48837365,2.66698056 L2.87927862,0.276075594 C3.04707559,0.108278618 3.23884881,0.0245269978 3.45456156,0.0245269978 C3.61031533,0.0245269978 3.74815119,0.0693952484 3.86792225,0.159315335 C3.98780346,0.24912527 4.08965659,0.359974082 4.17355508,0.491788337 L6.09705184,4.14113391 C6.20488985,4.33287041 6.23488769,4.54256156 6.18697192,4.77031749 C6.13905616,4.99796328 6.03723974,5.18969978 5.88133909,5.34549028 L5.00053348,6.22640605 C4.97659395,6.25034557 4.95551836,6.28937581 4.93760043,6.34327646 C4.91964579,6.39721382 4.91061339,6.44211879 4.91061339,6.47810151 C4.95852916,6.72968683 5.06636717,7.01740173 5.23420086,7.34095248 C5.37805832,7.62852052 5.59979266,7.97905832 5.89940389,8.39256587 C6.19901512,8.80607343 6.62441901,9.28236717 7.17576242,9.82166739 C7.71502592,10.3729741 8.19436717,10.8013888 8.61389633,11.1070216 C9.0332419,11.4125443 9.3837797,11.6374363 9.665473,11.7811469 C9.94716631,11.9250043 10.162879,12.0119136 10.3126112,12.0417646 L10.5372095,12.0867797 C10.5611857,12.0867797 10.6003261,12.0777473 10.6541166,12.0598294 C10.708054,12.0417646 10.7470475,12.0207991 10.7710238,11.9968596 L11.7956501,10.9541317 C12.0115097,10.7623952 12.2630583,10.6665637 12.5507732,10.6665637 C12.7544428,10.6665637 12.9162181,10.7024363 13.0359892,10.7744384 L13.054054,10.7744384 L16.5235227,12.8236911 C16.7752549,12.9797387 16.924987,13.1773866 16.9730497,13.4170756 Z" id="Fill-1" fill="#192340" mask="url(#mask-2)"></path>
                    </g>
                </g>
            </g>
        </g>
    </g>
</svg>