<?xml version="1.0" encoding="UTF-8"?>
<svg width="15px" height="26px" viewBox="0 0 15 26" version="1.1" xmlns="http://www.w3.org/2000/svg" xmlns:xlink="http://www.w3.org/1999/xlink">
    <!-- Generator: Sketch 49.1 (51147) - http://www.bohemiancoding.com/sketch -->
    <title>angle-arrow-down copy</title>
    <desc>Created with Sketch.</desc>
    <defs></defs>
    <g id="Page-1" stroke="none" stroke-width="1" fill="none" fill-rule="evenodd" opacity="0.4">
        <g id="Homepage" transform="translate(-1479.000000, -2714.000000)" fill="#FFFFFF">
            <path d="M1499.24059,2721.04615 L1497.93713,2719.75782 C1497.76366,2719.5862 1497.5638,2719.5 1497.33756,2719.5 C1497.11253,2719.5 1496.91267,2719.5862 1496.7396,2719.75782 L1486.4998,2729.88608 L1476.262,2719.75782 C1476.08733,2719.5862 1475.88747,2719.5 1475.66244,2719.5 C1475.4362,2719.5 1475.23634,2719.5862 1475.06287,2719.75782 L1473.76061,2721.04615 C1473.58754,2721.21737 1473.5,2721.41509 1473.5,2721.6393 C1473.5,2721.86311 1473.58754,2722.06083 1473.76061,2722.23245 L1485.90023,2734.24218 C1486.07531,2734.41498 1486.27516,2734.5 1486.4998,2734.5 C1486.72644,2734.5 1486.92629,2734.41498 1487.09937,2734.24218 L1499.24059,2722.23245 C1499.41406,2722.06083 1499.5,2721.86311 1499.5,2721.6393 C1499.5,2721.41509 1499.41406,2721.21737 1499.24059,2721.04615 Z" id="angle-arrow-down-copy" transform="translate(1486.500000, 2727.000000) scale(-1, 1) rotate(-270.000000) translate(-1486.500000, -2727.000000) "></path>
        </g>
    </g>
</svg>