<?xml version="1.0" encoding="UTF-8"?>
<svg width="15px" height="26px" viewBox="0 0 15 26" version="1.1" xmlns="http://www.w3.org/2000/svg" xmlns:xlink="http://www.w3.org/1999/xlink">
    <!-- Generator: Sketch 49.1 (51147) - http://www.bohemiancoding.com/sketch -->
    <title>angle-arrow-down</title>
    <desc>Created with Sketch.</desc>
    <defs></defs>
    <g id="Page-1" stroke="none" stroke-width="1" fill="none" fill-rule="evenodd" opacity="0.4">
        <g id="Homepage" transform="translate(-108.000000, -2714.000000)" fill="#FFFFFF">
            <path d="M128.240588,2721.04615 L126.93713,2719.75782 C126.763656,2719.5862 126.5638,2719.5 126.337564,2719.5 C126.112526,2719.5 125.912671,2719.5862 125.739596,2719.75782 L115.4998,2729.88608 L105.262003,2719.75782 C105.087329,2719.5862 104.887474,2719.5 104.662436,2719.5 C104.4362,2719.5 104.236344,2719.5862 104.06287,2719.75782 L102.760612,2721.04615 C102.587537,2721.21737 102.5,2721.41509 102.5,2721.6393 C102.5,2721.86311 102.587537,2722.06083 102.760612,2722.23245 L114.900234,2734.24218 C115.075307,2734.41498 115.275163,2734.5 115.4998,2734.5 C115.726436,2734.5 115.926292,2734.41498 116.099367,2734.24218 L128.240588,2722.23245 C128.414062,2722.06083 128.5,2721.86311 128.5,2721.6393 C128.5,2721.41509 128.414062,2721.21737 128.240588,2721.04615 Z" id="angle-arrow-down" transform="translate(115.500000, 2727.000000) rotate(-270.000000) translate(-115.500000, -2727.000000) "></path>
        </g>
    </g>
</svg>