<?xml version="1.0" encoding="utf-8"?>
<!-- Generator: Adobe Illustrator 16.0.0, SVG Export Plug-In . SVG Version: 6.00 Build 0)  -->
<!DOCTYPE svg PUBLIC "-//W3C//DTD SVG 1.1//EN" "http://www.w3.org/Graphics/SVG/1.1/DTD/svg11.dtd">
<svg version="1.1" id="Layer_1" xmlns="http://www.w3.org/2000/svg" xmlns:xlink="http://www.w3.org/1999/xlink" x="0px" y="0px"
	 width="140px" height="130px" viewBox="0 0 140 130" enable-background="new 0 0 140 130" xml:space="preserve">
<g id="Page-1">
	<g id="Elements" transform="translate(-1224.000000, -3503.000000)">
		<g id="carat" transform="translate(1224.000000, 3500.000000)">
			<g id="diamond-copy-2" transform="translate(46.000000, 0.000000)">
				<path id="diamond-copy" fill="#ECECEC" d="M87.961,36.244c0.012-0.059,0.012-0.111,0.02-0.164c0-0.066,0-0.134-0.008-0.2
					c-0.006-0.059-0.012-0.111-0.025-0.164c-0.014-0.066-0.033-0.132-0.059-0.192c-0.014-0.032-0.014-0.066-0.027-0.098
					c-0.014-0.021-0.033-0.041-0.045-0.059c-0.014-0.027-0.014-0.047-0.027-0.073l-13.5-21.62c-0.066-0.1-0.139-0.184-0.218-0.263
					c-0.007,0-0.007,0-0.007,0c-0.118-0.113-0.25-0.192-0.401-0.251c-0.021-0.014-0.034-0.025-0.052-0.032
					c-0.014-0.007-0.027-0.007-0.048-0.007c-0.132-0.045-0.276-0.08-0.422-0.08H21.845c-0.145,0-0.283,0.034-0.422,0.073
					c-0.013,0.007-0.027,0.007-0.041,0.007c-0.019,0.014-0.032,0.025-0.052,0.032c-0.138,0.061-0.27,0.133-0.388,0.238
					c-0.006,0.007-0.013,0.014-0.02,0.021c-0.086,0.073-0.159,0.164-0.225,0.263l-13.5,21.62c-0.013,0.019-0.02,0.045-0.025,0.073
					c-0.014,0.019-0.034,0.039-0.047,0.059c-0.014,0.032-0.014,0.066-0.025,0.098c-0.027,0.061-0.047,0.126-0.061,0.192
					c-0.012,0.052-0.025,0.104-0.032,0.164C7,35.946,7,36.014,7,36.08c0.007,0.052,0.007,0.104,0.02,0.164
					c0.007,0.066,0.025,0.125,0.046,0.192c0.02,0.052,0.039,0.105,0.066,0.15c0.006,0.027,0.013,0.054,0.027,0.08
					c0.019,0.041,0.052,0.066,0.079,0.106c0.019,0.025,0.032,0.059,0.052,0.086L46.426,85.48c0,0.006,0.006,0.006,0.006,0.006
					l0.007,0.012c0.007,0.008,0.014,0.008,0.014,0.014c0.111,0.132,0.249,0.231,0.401,0.318c0.041,0.018,0.08,0.038,0.12,0.052
					C47.137,85.955,47.309,86,47.493,86c0.151,0,0.304-0.025,0.462-0.08c0.02-0.012,0.039-0.024,0.06-0.038
					c0.065-0.026,0.125-0.073,0.185-0.113c0.105-0.065,0.197-0.132,0.276-0.216c0.021-0.021,0.046-0.034,0.065-0.055l39.148-48.64
					c0.027-0.027,0.033-0.061,0.055-0.086c0.025-0.041,0.059-0.066,0.078-0.106c0.012-0.025,0.02-0.053,0.033-0.08
					c0.02-0.045,0.04-0.098,0.059-0.15C87.934,36.369,87.955,36.31,87.961,36.244z M50.328,15.747h20.869l-6.559,17.621
					L50.328,15.747z M62.207,34.661H32.779l14.714-18.124L62.207,34.661z M30.248,33.486l-6.478-17.739h20.881L30.248,33.486z
					 M63.148,37.365L47.256,80.068L31.66,37.365H63.148z M73.445,17.436l10.758,17.225H67.038L73.445,17.436z M21.521,17.455
					l6.283,17.207H10.777L21.521,17.455z M28.785,37.365L43.42,77.444L11.16,37.365H28.785z M50.723,78.479l15.307-41.114H83.82
					L50.723,78.479z"/>
			</g>
			<g id="diamond-copy-2_1_" transform="translate(0.000000, 45.000000)">
				<path id="diamond-copy_1_" fill="#ECECEC" d="M65.972,28.992c0.009-0.043,0.009-0.08,0.014-0.119c0-0.047,0-0.096-0.005-0.144
					c-0.005-0.043-0.009-0.081-0.019-0.118c-0.01-0.049-0.024-0.096-0.043-0.14c-0.01-0.023-0.01-0.048-0.02-0.071
					c-0.01-0.015-0.025-0.029-0.033-0.043c-0.01-0.02-0.01-0.033-0.02-0.053L56.013,12.66c-0.048-0.072-0.101-0.133-0.159-0.191
					c-0.005,0-0.005,0-0.005,0c-0.086-0.082-0.182-0.139-0.292-0.182c-0.015-0.01-0.025-0.018-0.038-0.023
					c-0.01-0.005-0.02-0.005-0.035-0.005c-0.096-0.033-0.202-0.058-0.307-0.058H17.813c-0.106,0-0.207,0.024-0.307,0.053
					c-0.01,0.005-0.02,0.005-0.03,0.005c-0.013,0.01-0.023,0.018-0.038,0.023c-0.101,0.044-0.197,0.097-0.283,0.172
					c-0.005,0.005-0.01,0.01-0.015,0.015c-0.063,0.053-0.116,0.119-0.164,0.191L7.144,28.305c-0.01,0.014-0.015,0.033-0.019,0.053
					c-0.01,0.014-0.025,0.028-0.035,0.043c-0.01,0.023-0.01,0.048-0.018,0.071c-0.02,0.044-0.035,0.091-0.044,0.14
					c-0.009,0.037-0.019,0.075-0.023,0.118C7,28.777,7,28.826,7,28.873c0.005,0.039,0.005,0.076,0.015,0.119
					c0.005,0.047,0.019,0.09,0.033,0.139c0.015,0.039,0.028,0.076,0.048,0.109c0.005,0.02,0.01,0.039,0.02,0.058
					c0.013,0.029,0.038,0.048,0.058,0.077c0.014,0.018,0.023,0.043,0.038,0.063l28.505,35.186c0,0.006,0.005,0.006,0.005,0.006
					l0.005,0.008c0.005,0.006,0.01,0.006,0.01,0.01c0.081,0.096,0.182,0.168,0.292,0.23c0.029,0.014,0.058,0.027,0.087,0.037
					C36.236,64.967,36.361,65,36.495,65c0.11,0,0.221-0.019,0.337-0.058c0.013-0.009,0.028-0.019,0.043-0.028
					c0.048-0.02,0.091-0.053,0.134-0.082c0.078-0.047,0.144-0.095,0.202-0.156c0.015-0.014,0.033-0.023,0.048-0.039l28.516-35.199
					c0.02-0.02,0.024-0.045,0.039-0.063c0.019-0.029,0.043-0.048,0.058-0.077c0.008-0.019,0.013-0.038,0.023-0.058
					c0.015-0.033,0.029-0.07,0.043-0.109C65.952,29.082,65.967,29.039,65.972,28.992z M38.56,14.159h15.201L48.983,26.91
					L38.56,14.159z M47.212,27.847H25.778l10.717-13.115L47.212,27.847z M23.934,26.996l-4.719-12.837h15.21L23.934,26.996z
					 M47.898,29.804L36.322,60.707l-11.36-30.903H47.898z M55.398,15.381l7.836,12.465H50.731L55.398,15.381z M17.577,15.395
					l4.576,12.452H9.751L17.577,15.395z M22.869,29.804l10.659,29.005L10.03,29.804H22.869z M38.848,59.558l11.148-29.754h12.959
					L38.848,59.558z"/>
			</g>
			<g id="diamond-copy-2_2_" transform="translate(49.000000, 80.000000)">
				<path id="diamond-copy_2_" fill="#ECECEC" d="M40.984,21.05c0.004-0.024,0.004-0.047,0.008-0.069c0-0.027,0-0.056-0.004-0.084
					c-0.002-0.024-0.004-0.047-0.01-0.068c-0.006-0.027-0.015-0.056-0.025-0.081c-0.006-0.014-0.006-0.028-0.012-0.042
					c-0.006-0.008-0.014-0.017-0.019-0.024c-0.006-0.011-0.006-0.02-0.011-0.03l-5.668-9.104c-0.027-0.041-0.058-0.077-0.091-0.11
					c-0.003,0-0.003,0-0.003,0c-0.049-0.048-0.104-0.081-0.168-0.106c-0.009-0.006-0.015-0.01-0.022-0.014
					c-0.005-0.002-0.011-0.002-0.02-0.002c-0.056-0.02-0.116-0.033-0.177-0.033H13.231c-0.061,0-0.119,0.014-0.177,0.03
					c-0.006,0.003-0.011,0.003-0.017,0.003c-0.008,0.006-0.014,0.01-0.022,0.014c-0.058,0.025-0.113,0.056-0.163,0.1
					c-0.002,0.003-0.005,0.006-0.008,0.009c-0.036,0.03-0.066,0.069-0.094,0.11L7.083,20.65c-0.006,0.008-0.009,0.02-0.011,0.03
					c-0.006,0.008-0.014,0.017-0.02,0.024c-0.005,0.014-0.005,0.028-0.01,0.042c-0.012,0.025-0.02,0.054-0.026,0.081
					c-0.005,0.021-0.01,0.044-0.013,0.068C7,20.925,7,20.953,7,20.98c0.003,0.022,0.003,0.045,0.008,0.069
					c0.003,0.028,0.011,0.053,0.02,0.081c0.008,0.022,0.016,0.045,0.027,0.063c0.003,0.011,0.006,0.022,0.011,0.033
					c0.008,0.017,0.022,0.028,0.034,0.045c0.007,0.011,0.013,0.024,0.022,0.036l16.427,20.473c0,0.002,0.003,0.002,0.003,0.002
					l0.003,0.006c0.002,0.002,0.006,0.002,0.006,0.006c0.047,0.055,0.104,0.098,0.168,0.133c0.018,0.008,0.033,0.017,0.051,0.022
					C23.848,41.98,23.92,42,23.997,42c0.063,0,0.128-0.011,0.194-0.033c0.008-0.006,0.016-0.011,0.024-0.017
					c0.028-0.011,0.053-0.03,0.077-0.048c0.045-0.027,0.083-0.055,0.116-0.091c0.009-0.009,0.02-0.015,0.028-0.022l16.432-20.48
					c0.012-0.012,0.015-0.025,0.023-0.036c0.01-0.017,0.024-0.028,0.033-0.045c0.005-0.011,0.008-0.022,0.014-0.033
					c0.008-0.019,0.017-0.041,0.024-0.063C40.973,21.103,40.98,21.078,40.984,21.05z M25.188,12.42h8.76l-2.754,7.419L25.188,12.42z
					 M30.174,20.384H17.821l6.176-7.631L30.174,20.384z M16.759,19.889L14.04,12.42h8.765L16.759,19.889z M30.568,21.521
					l-6.671,17.98l-6.546-17.98H30.568z M34.891,13.131l4.516,7.253h-7.205L34.891,13.131z M13.095,13.139l2.637,7.245H8.585
					L13.095,13.139z M16.145,21.521l6.143,16.876L8.746,21.521H16.145z M25.354,38.834l6.424-17.313h7.469L25.354,38.834z"/>
			</g>
		</g>
	</g>
</g>
</svg>
