<?xml version="1.0" encoding="utf-8"?>
<!-- Generator: Adobe Illustrator 16.0.0, SVG Export Plug-In . SVG Version: 6.00 Build 0)  -->
<!DOCTYPE svg PUBLIC "-//W3C//DTD SVG 1.1//EN" "http://www.w3.org/Graphics/SVG/1.1/DTD/svg11.dtd">
<svg version="1.1" id="Layer_1" xmlns="http://www.w3.org/2000/svg" xmlns:xlink="http://www.w3.org/1999/xlink" x="0px" y="0px"
	 width="140px" height="130px" viewBox="0 0 140 130" enable-background="new 0 0 140 130" xml:space="preserve">
<g id="Page-1">
	<g id="Elements" transform="translate(-894.000000, -3490.000000)">
		<g id="clarity" transform="translate(897.000000, 3492.000000)">
			<g id="diamond-copy-2" transform="translate(14.000000, 8.000000)" opacity="0.3265">
				<path id="diamond-copy" fill="#ECECEC" d="M105.949,42.531c0.016-0.078,0.016-0.147,0.024-0.216c0-0.086,0-0.175-0.009-0.262
					c-0.009-0.078-0.016-0.146-0.033-0.215c-0.018-0.087-0.045-0.173-0.077-0.253c-0.019-0.042-0.019-0.087-0.036-0.129
					c-0.018-0.027-0.043-0.053-0.059-0.078c-0.018-0.036-0.018-0.063-0.035-0.096L88.057,12.835
					c-0.086-0.131-0.181-0.242-0.284-0.347c-0.009,0-0.009,0-0.009,0c-0.154-0.149-0.327-0.253-0.525-0.331
					c-0.027-0.018-0.045-0.033-0.068-0.042c-0.018-0.009-0.035-0.009-0.063-0.009c-0.172-0.06-0.361-0.104-0.552-0.104H19.427
					c-0.19,0-0.371,0.044-0.552,0.095c-0.018,0.009-0.035,0.009-0.053,0.009c-0.024,0.018-0.042,0.034-0.069,0.042
					c-0.181,0.08-0.353,0.175-0.508,0.313c-0.009,0.009-0.018,0.018-0.026,0.026c-0.113,0.096-0.208,0.216-0.294,0.347L0.258,41.282
					c-0.018,0.024-0.026,0.06-0.033,0.096c-0.018,0.024-0.044,0.051-0.062,0.078c-0.018,0.042-0.018,0.086-0.033,0.129
					c-0.036,0.08-0.062,0.167-0.08,0.253c-0.016,0.069-0.033,0.138-0.042,0.215C0,42.14,0,42.229,0,42.315
					c0.009,0.069,0.009,0.138,0.026,0.216c0.009,0.086,0.033,0.164,0.06,0.253c0.027,0.069,0.051,0.138,0.086,0.198
					c0.009,0.035,0.018,0.071,0.035,0.104c0.024,0.053,0.068,0.086,0.104,0.14c0.024,0.033,0.042,0.078,0.068,0.113l51.213,63.976
					c0,0.009,0.009,0.009,0.009,0.009l0.009,0.016c0.009,0.009,0.018,0.009,0.018,0.018c0.146,0.174,0.327,0.305,0.526,0.418
					c0.053,0.024,0.104,0.051,0.157,0.068c0.214,0.096,0.439,0.156,0.68,0.156c0.199,0,0.397-0.033,0.604-0.104
					c0.025-0.016,0.051-0.033,0.078-0.052c0.086-0.035,0.163-0.095,0.24-0.148c0.139-0.086,0.259-0.173,0.362-0.284
					c0.026-0.026,0.06-0.044,0.086-0.071l51.231-64c0.035-0.035,0.044-0.08,0.07-0.113c0.033-0.053,0.078-0.086,0.104-0.14
					c0.016-0.034,0.025-0.069,0.043-0.104c0.025-0.06,0.053-0.129,0.076-0.198C105.914,42.695,105.94,42.618,105.949,42.531z
					 M56.701,15.562h27.311l-8.584,23.185L56.701,15.562z M72.246,40.449H33.737l19.254-23.847L72.246,40.449z M30.424,38.902
					l-8.478-23.34h27.326L30.424,38.902z M73.479,44.007L52.68,100.195L32.271,44.007H73.479z M86.953,17.785l14.078,22.664H78.568
					L86.953,17.785z M19.003,17.809l8.221,22.64H4.942L19.003,17.809z M28.51,44.007l19.15,52.735L5.443,44.007H28.51z
					 M57.218,98.104l20.03-54.098h23.281L57.218,98.104z"/>
			</g>
			<path id="Line-3" fill="none" stroke="#FFFFFF" stroke-width="2" stroke-linecap="square" d="M89.5,44.5l44-36"/>
			<path id="Line-3-decoration-1" fill="none" stroke="#FFFFFF" stroke-width="2" stroke-linecap="square" d="M127.041,17.661
				L133.5,8.5l-10.258,4.517"/>
			<path id="Line-3-Copy-3" fill="none" stroke="#FFFFFF" stroke-width="2" stroke-linecap="square" d="M44.5,44.5l-44-36"/>
			<path id="Line-3-Copy-3-decoration-1" fill="none" stroke="#FFFFFF" stroke-width="2" stroke-linecap="square" d="M38.041,17.661
				L44.5,8.5l-10.258,4.517"/>
			
				<g id="Group-4" transform="translate(67.000000, 96.000000) scale(1, -1) translate(-67.000000, -96.000000) translate(15.000000, 82.000000)">
				<path id="Line-3-Copy-4" fill="none" stroke="#FFFFFF" stroke-width="2" stroke-linecap="square" d="M70.378,19.621
					l33.244-27.242"/>
				<path id="Line-3-Copy-4-decoration-1" fill="none" stroke="#FFFFFF" stroke-width="2" stroke-linecap="square" d="M97.17,1.545
					l6.452-9.166L93.367-3.097"/>
				<path id="Line-3-Copy-5" fill="none" stroke="#FFFFFF" stroke-width="2" stroke-linecap="square" d="M33.622,19.621L0.378-7.621
					"/>
				<path id="Line-3-Copy-5-decoration-1" fill="none" stroke="#FFFFFF" stroke-width="2" stroke-linecap="square" d="M27.17,1.545
					l6.452-9.166L23.367-3.097"/>
			</g>
		</g>
	</g>
</g>
</svg>
