<?xml version="1.0" encoding="utf-8"?>
<!-- Generator: Adobe Illustrator 16.0.0, SVG Export Plug-In . SVG Version: 6.00 Build 0)  -->
<!DOCTYPE svg PUBLIC "-//W3C//DTD SVG 1.1//EN" "http://www.w3.org/Graphics/SVG/1.1/DTD/svg11.dtd">
<svg version="1.1" id="Layer_1" xmlns="http://www.w3.org/2000/svg" xmlns:xlink="http://www.w3.org/1999/xlink" x="0px" y="0px"
	 width="140px" height="130px" viewBox="0 0 140 130" enable-background="new 0 0 140 130" xml:space="preserve">
<g id="Page-1">
	<g id="Elements" transform="translate(-583.000000, -3504.000000)">
		<g id="diamond-copy-7" transform="translate(583.000000, 3500.000000)">
			
				<linearGradient id="diamond-copy_1_" gradientUnits="userSpaceOnUse" x1="-174.8486" y1="217.4053" x2="-175.695" y2="216.5442" gradientTransform="matrix(105.9735 0 0 -95.9978 18644.25 20883.5527)">
				<stop  offset="0" style="stop-color:#FFFFFF"/>
				<stop  offset="0.7543" style="stop-color:#FEFAD7"/>
				<stop  offset="1" style="stop-color:#FDF7BB"/>
			</linearGradient>
			<path id="diamond-copy" fill="url(#diamond-copy_1_)" d="M123.949,51.531c0.016-0.078,0.016-0.147,0.024-0.216
				c0-0.086,0-0.175-0.009-0.262c-0.009-0.078-0.016-0.146-0.033-0.215c-0.018-0.087-0.045-0.173-0.077-0.253
				c-0.019-0.042-0.019-0.087-0.036-0.129c-0.018-0.027-0.043-0.053-0.059-0.078c-0.018-0.036-0.018-0.063-0.035-0.096
				l-17.668-28.447c-0.086-0.131-0.181-0.242-0.284-0.347c-0.009,0-0.009,0-0.009,0c-0.154-0.149-0.327-0.253-0.525-0.331
				c-0.027-0.018-0.045-0.033-0.068-0.042c-0.018-0.009-0.035-0.009-0.063-0.009c-0.172-0.06-0.361-0.104-0.552-0.104H37.427
				c-0.19,0-0.371,0.044-0.552,0.095c-0.018,0.009-0.035,0.009-0.053,0.009c-0.024,0.018-0.042,0.034-0.069,0.042
				c-0.181,0.08-0.353,0.175-0.508,0.313c-0.009,0.009-0.018,0.018-0.026,0.026c-0.113,0.096-0.208,0.216-0.294,0.347L18.258,50.282
				c-0.018,0.024-0.026,0.06-0.033,0.096c-0.018,0.024-0.044,0.051-0.062,0.078c-0.018,0.042-0.018,0.086-0.033,0.129
				c-0.036,0.08-0.062,0.167-0.08,0.253c-0.016,0.069-0.033,0.138-0.042,0.215C18,51.14,18,51.229,18,51.315
				c0.009,0.069,0.009,0.138,0.026,0.216c0.009,0.086,0.033,0.164,0.06,0.253c0.027,0.069,0.051,0.138,0.086,0.198
				c0.009,0.035,0.018,0.071,0.035,0.104c0.024,0.053,0.068,0.086,0.104,0.14c0.024,0.033,0.042,0.078,0.068,0.113l51.213,63.976
				c0,0.009,0.009,0.009,0.009,0.009l0.009,0.016c0.009,0.009,0.018,0.009,0.018,0.018c0.146,0.174,0.327,0.305,0.526,0.418
				c0.053,0.024,0.104,0.051,0.157,0.068c0.214,0.096,0.439,0.156,0.68,0.156c0.198,0,0.397-0.033,0.604-0.104
				c0.025-0.016,0.051-0.033,0.078-0.052c0.086-0.035,0.163-0.095,0.24-0.148c0.139-0.086,0.259-0.173,0.362-0.284
				c0.026-0.026,0.06-0.044,0.086-0.071l51.231-64c0.035-0.035,0.044-0.08,0.07-0.113c0.033-0.053,0.078-0.086,0.104-0.14
				c0.016-0.034,0.025-0.069,0.043-0.104c0.025-0.06,0.053-0.129,0.076-0.198C123.914,51.695,123.94,51.618,123.949,51.531z
				 M74.701,24.562h27.311l-8.584,23.185L74.701,24.562z M90.246,49.449H51.737l19.254-23.847L90.246,49.449z M48.424,47.902
				l-8.478-23.34h27.326L48.424,47.902z M91.479,53.007L70.68,109.195L50.271,53.007H91.479z M104.953,26.785l14.078,22.664H96.568
				L104.953,26.785z M37.003,26.809l8.221,22.64H22.942L37.003,26.809z M46.51,53.007l19.15,52.735L23.443,53.007H46.51z
				 M75.218,107.104l20.03-54.098h23.281L75.218,107.104z"/>
		</g>
	</g>
</g>
</svg>
