<?xml version="1.0" encoding="utf-8"?>
<!-- Generator: Adobe Illustrator 16.0.0, SVG Export Plug-In . SVG Version: 6.00 Build 0)  -->
<!DOCTYPE svg PUBLIC "-//W3C//DTD SVG 1.1//EN" "http://www.w3.org/Graphics/SVG/1.1/DTD/svg11.dtd">
<svg version="1.1" id="Layer_1" xmlns="http://www.w3.org/2000/svg" xmlns:xlink="http://www.w3.org/1999/xlink" x="0px" y="0px"
	 width="140px" height="130px" viewBox="0 0 140 130" enable-background="new 0 0 140 130" xml:space="preserve">
<g id="Page-1">
	<g id="Elements" transform="translate(-238.000000, -3486.000000)">
		<g id="cut" transform="translate(241.000000, 3488.000000)">
			<g id="diamond-copy-2" transform="translate(12.000000, 12.000000)">
				<path id="diamond-copy" fill="#ECECEC" d="M108.949,37.531c0.016-0.078,0.016-0.147,0.024-0.216c0-0.086,0-0.175-0.009-0.262
					c-0.009-0.078-0.016-0.146-0.033-0.215c-0.018-0.087-0.045-0.173-0.077-0.253c-0.019-0.042-0.019-0.087-0.036-0.129
					c-0.018-0.027-0.043-0.053-0.059-0.078c-0.018-0.036-0.018-0.063-0.035-0.096L91.057,7.835
					c-0.086-0.131-0.181-0.242-0.284-0.347c-0.009,0-0.009,0-0.009,0c-0.154-0.149-0.327-0.253-0.525-0.331
					c-0.027-0.018-0.045-0.033-0.068-0.042c-0.018-0.009-0.035-0.009-0.063-0.009c-0.172-0.06-0.361-0.104-0.552-0.104H22.427
					c-0.19,0-0.371,0.044-0.552,0.095c-0.018,0.009-0.035,0.009-0.053,0.009c-0.024,0.018-0.042,0.034-0.069,0.042
					c-0.181,0.08-0.353,0.175-0.508,0.313c-0.009,0.009-0.018,0.018-0.026,0.026c-0.113,0.096-0.208,0.216-0.294,0.347L3.258,36.282
					c-0.018,0.024-0.026,0.06-0.033,0.096c-0.018,0.024-0.044,0.051-0.062,0.078c-0.018,0.042-0.018,0.086-0.033,0.129
					c-0.036,0.08-0.062,0.167-0.08,0.253c-0.016,0.069-0.033,0.138-0.042,0.215C3,37.14,3,37.229,3,37.315
					c0.009,0.069,0.009,0.138,0.026,0.216c0.009,0.086,0.033,0.164,0.06,0.253c0.027,0.069,0.051,0.138,0.086,0.198
					c0.009,0.035,0.018,0.071,0.035,0.104c0.024,0.053,0.068,0.086,0.104,0.14c0.024,0.033,0.042,0.078,0.068,0.113l51.213,63.976
					c0,0.009,0.009,0.009,0.009,0.009l0.009,0.016c0.009,0.009,0.018,0.009,0.018,0.018c0.146,0.174,0.327,0.305,0.526,0.418
					c0.053,0.024,0.104,0.051,0.157,0.068c0.214,0.096,0.439,0.156,0.68,0.156c0.198,0,0.397-0.033,0.604-0.104
					c0.025-0.016,0.051-0.033,0.078-0.052c0.086-0.035,0.163-0.095,0.24-0.148c0.139-0.086,0.259-0.173,0.362-0.284
					c0.026-0.026,0.06-0.044,0.086-0.071l51.231-64c0.035-0.035,0.044-0.08,0.07-0.113c0.033-0.053,0.078-0.086,0.104-0.14
					c0.016-0.034,0.025-0.069,0.043-0.104c0.025-0.06,0.053-0.129,0.076-0.198C108.914,37.695,108.94,37.618,108.949,37.531z
					 M59.701,10.562h27.311l-8.584,23.185L59.701,10.562z M75.246,35.449H36.737l19.254-23.847L75.246,35.449z M33.424,33.902
					l-8.478-23.34h27.326L33.424,33.902z M76.479,39.007L55.68,95.195L35.271,39.007H76.479z M89.953,12.785l14.078,22.664H81.568
					L89.953,12.785z M22.003,12.809l8.221,22.64H7.942L22.003,12.809z M31.51,39.007l19.15,52.735L8.443,39.007H31.51z
					 M60.218,93.104l20.03-54.098h23.281L60.218,93.104z"/>
			</g>
			<path id="Line" fill="none" stroke="#979797" stroke-linecap="square" stroke-dasharray="6" d="M5.5,62.5l47,59"/>
			<path id="Line-decoration-1" fill="none" stroke="#979797" stroke-linecap="square" stroke-dasharray="6" d="M7.847,60.631
				l-4.693,3.738"/>
			<path id="Line-decoration-2" fill="none" stroke="#979797" stroke-linecap="square" stroke-dasharray="6" d="M54.847,119.631
				l-4.693,3.738"/>
			<path id="Line-Copy-7" fill="none" stroke="#979797" stroke-linecap="square" stroke-dasharray="6" d="M130.5,62.5l-47,59"/>
			<path id="Line-Copy-7-decoration-1" fill="none" stroke="#979797" stroke-linecap="square" stroke-dasharray="6" d="
				M85.847,60.631l-4.693,3.738"/>
			<path id="Line-Copy-7-decoration-2" fill="none" stroke="#979797" stroke-linecap="square" stroke-dasharray="6" d="
				M132.847,119.631l-4.693,3.738"/>
			<path id="Line-Copy-6" fill="none" stroke="#979797" stroke-linecap="square" stroke-dasharray="6" d="M114,16l19,30"/>
			<path id="Line-Copy-6-decoration-1" fill="none" stroke="#979797" stroke-linecap="square" stroke-dasharray="6" d="
				M116.535,14.395l-5.07,3.21"/>
			<path id="Line-Copy-6-decoration-2" fill="none" stroke="#979797" stroke-linecap="square" stroke-dasharray="6" d="
				M135.535,44.395l-5.07,3.21"/>
			<path id="Line-Copy-8" fill="none" stroke="#979797" stroke-linecap="square" stroke-dasharray="6" d="M22,16L3,46"/>
			<path id="Line-Copy-8-decoration-1" fill="none" stroke="#979797" stroke-linecap="square" stroke-dasharray="6" d="
				M5.535,14.395l-5.069,3.21"/>
			<path id="Line-Copy-8-decoration-2" fill="none" stroke="#979797" stroke-linecap="square" stroke-dasharray="6" d="
				M24.535,44.395l-5.069,3.21"/>
			<path id="Line-2" fill="none" stroke="#979797" stroke-linecap="square" stroke-dasharray="6" d="M34.5,4.5h67.008"/>
			<path id="Line-2-decoration-1" fill="none" stroke="#979797" stroke-linecap="square" stroke-dasharray="6" d="M34.5,1.5v6"/>
			<path id="Line-2-decoration-2" fill="none" stroke="#979797" stroke-linecap="square" stroke-dasharray="6" d="M101.508,1.5v6"/>
		</g>
	</g>
</g>
</svg>
