<?xml version="1.0" encoding="UTF-8"?>
<svg width="43px" height="39px" viewBox="0 0 43 39" version="1.1" xmlns="http://www.w3.org/2000/svg" xmlns:xlink="http://www.w3.org/1999/xlink">
    <!-- Generator: Sketch 49.1 (51147) - http://www.bohemiancoding.com/sketch -->
    <title>diamond-icon</title>
    <desc>Created with Sketch.</desc>
    <defs></defs>
    <g id="Page-1" stroke="none" stroke-width="1" fill="none" fill-rule="evenodd" opacity="0.26245471">
        <g id="Elements" transform="translate(-247.000000, -2549.000000)" fill="#192340">
            <g id="diamond-copy" transform="translate(247.000000, 2548.000000)">
                <path d="M42.9793958,13.8124444 C42.9856667,13.7813333 42.9856667,13.7537778 42.98925,13.7262222 C42.98925,13.6915556 42.98925,13.656 42.9856667,13.6213333 C42.9820833,13.5902222 42.9793958,13.5626667 42.9722292,13.5351111 C42.9650625,13.5004444 42.9543125,13.4657778 42.940875,13.4337778 C42.9337083,13.4168889 42.9337083,13.3991111 42.9265417,13.3822222 C42.919375,13.3715556 42.908625,13.3608889 42.9023542,13.3511111 C42.8951875,13.3368889 42.8951875,13.3262222 42.8880208,13.3128889 L35.7213542,1.93422222 C35.6864167,1.88177778 35.6478958,1.83733333 35.6057917,1.79555556 C35.6022083,1.79555556 35.6022083,1.79555556 35.6022083,1.79555556 C35.5395,1.736 35.469625,1.69422222 35.389,1.66311111 C35.37825,1.656 35.3710833,1.64977778 35.3612292,1.64622222 C35.3540625,1.64266667 35.3468958,1.64266667 35.3361458,1.64266667 C35.2662708,1.61866667 35.1892292,1.60088889 35.1121875,1.60088889 L7.88064583,1.60088889 C7.80360417,1.60088889 7.73014583,1.61866667 7.6566875,1.63911111 C7.64952083,1.64266667 7.64235417,1.64266667 7.6351875,1.64266667 C7.62533333,1.64977778 7.61816667,1.656 7.60741667,1.65955556 C7.53395833,1.69155556 7.46408333,1.72977778 7.401375,1.78488889 C7.39779167,1.78844444 7.39420833,1.792 7.390625,1.79555556 C7.3449375,1.83377778 7.30641667,1.88177778 7.27147917,1.93422222 L0.1048125,13.3128889 C0.0976458333,13.3226667 0.0940625,13.3368889 0.091375,13.3511111 C0.0842083333,13.3608889 0.0734583333,13.3715556 0.0662916667,13.3822222 C0.059125,13.3991111 0.059125,13.4168889 0.0528541667,13.4337778 C0.0385208333,13.4657778 0.0277708333,13.5004444 0.0206041667,13.5351111 C0.0143333333,13.5626667 0.00716666667,13.5902222 0.00358333333,13.6213333 C0,13.656 0,13.6915556 0,13.7262222 C0.00358333333,13.7537778 0.00358333333,13.7813333 0.01075,13.8124444 C0.0143333333,13.8471111 0.0241875,13.8782222 0.0349375,13.9137778 C0.0456875,13.9413333 0.0555416667,13.9688889 0.069875,13.9928889 C0.0734583333,14.0071111 0.0770416667,14.0213333 0.0842083333,14.0346667 C0.0940625,14.056 0.111979167,14.0693333 0.1263125,14.0906667 C0.136166667,14.104 0.143333333,14.1217778 0.154083333,14.136 L20.9293542,39.7262222 C20.9293542,39.7297778 20.9329375,39.7297778 20.9329375,39.7297778 L20.9365208,39.736 C20.9401042,39.7395556 20.9436875,39.7395556 20.9436875,39.7431111 C21.0028125,39.8124444 21.0762708,39.8648889 21.1568958,39.9102222 C21.1783958,39.92 21.199,39.9306667 21.2205,39.9377778 C21.3073958,39.976 21.3987708,40 21.4964167,40 C21.5770417,40 21.6576667,39.9866667 21.741875,39.9582222 C21.7517292,39.952 21.7624792,39.9448889 21.7732292,39.9377778 C21.8081667,39.9235556 21.8395208,39.8995556 21.870875,39.8782222 C21.9273125,39.8435556 21.9756875,39.8088889 22.0177917,39.7644444 C22.0285417,39.7537778 22.0419792,39.7466667 22.0527292,39.736 L42.8351667,14.136 C42.8495,14.1217778 42.8530833,14.104 42.8638333,14.0906667 C42.8772708,14.0693333 42.8951875,14.056 42.9059375,14.0346667 C42.9122083,14.0213333 42.9157917,14.0071111 42.9229583,13.9928889 C42.9337083,13.9688889 42.9444583,13.9413333 42.9543125,13.9137778 C42.9650625,13.8782222 42.9758125,13.8471111 42.9793958,13.8124444 Z M23.0014167,3.02488889 L34.0801875,3.02488889 L30.5980833,12.2986667 L23.0014167,3.02488889 Z M29.3071875,12.9795556 L13.6856458,12.9795556 L21.4964167,3.44088889 L29.3071875,12.9795556 Z M12.3418958,12.3608889 L8.90279167,3.02488889 L19.9878333,3.02488889 L12.3418958,12.3608889 Z M29.8070625,14.4026667 L21.3701042,36.8782222 L13.0908125,14.4026667 L29.8070625,14.4026667 Z M35.2734375,3.91377778 L40.984375,12.9795556 L31.8719583,12.9795556 L35.2734375,3.91377778 Z M7.70864583,3.92355556 L11.0438333,12.9795556 L2.004875,12.9795556 L7.70864583,3.92355556 Z M11.5652083,14.4026667 L19.333875,35.4968889 L2.20822917,14.4026667 L11.5652083,14.4026667 Z M23.2110417,36.0417778 L31.33625,14.4026667 L40.7810208,14.4026667 L23.2110417,36.0417778 Z"></path>
            </g>
        </g>
    </g>
</svg>