<svg xmlns="http://www.w3.org/2000/svg" width="43" height="39" viewBox="0 0 43 39">
    <path fill="#192340" fill-rule="evenodd" d="M42.98 12.812c.006-.03.006-.058.01-.086 0-.034 0-.07-.004-.105-.004-.03-.007-.058-.014-.086a.555.555 0 0 0-.031-.101c-.007-.017-.007-.035-.014-.052l-.025-.03c-.007-.015-.007-.026-.014-.04L35.721.935a.883.883 0 0 0-.115-.138h-.004a.631.631 0 0 0-.213-.133c-.01-.007-.018-.013-.028-.017-.007-.003-.014-.003-.025-.003A.7.7 0 0 0 35.112.6H7.881a.833.833 0 0 0-.224.038c-.007.004-.015.004-.022.004-.01.007-.017.013-.028.017a.77.77 0 0 0-.216.136.643.643 0 0 0-.12.138L.105 12.313a.097.097 0 0 0-.014.038c-.007.01-.018.02-.025.031-.007.017-.007.035-.013.052a.495.495 0 0 0-.032.101c-.007.028-.014.055-.017.086-.004.035-.004.07-.004.105.004.028.004.055.01.086.004.035.014.066.025.102.01.027.02.055.035.079a.177.177 0 0 0 .014.042c.01.021.028.034.042.056.01.013.017.03.028.045l20.775 25.59c0 .004.004.004.004.004l.004.006c.003.004.007.004.007.007.059.07.132.122.213.167.021.01.042.02.064.028a.68.68 0 0 0 .52.02l.032-.02c.035-.014.067-.038.098-.06a.7.7 0 0 0 .147-.114c.01-.01.024-.017.035-.028l20.782-25.6c.014-.014.018-.032.029-.045.013-.022.031-.035.042-.056.006-.014.01-.028.017-.042l.031-.08c.011-.035.022-.066.025-.1zM23 2.025h11.08l-3.483 9.274-7.597-9.274zm6.306 9.955H13.686l7.81-9.54 7.811 9.54zm-16.965-.62l-3.44-9.335h11.086l-7.646 9.336zm17.465 2.043L21.37 35.878l-8.28-22.475h16.717zm5.466-10.49l5.711 9.067h-9.112l3.401-9.066zm-27.564.01l3.335 9.057h-9.04L7.71 2.924zm3.856 10.48l7.769 21.094L2.208 13.403h9.357zm11.646 21.639l8.125-21.64h9.445l-17.57 21.64z" opacity=".262"/>
</svg>
