<?xml version="1.0" encoding="UTF-8"?>
<svg width="15px" height="15px" viewBox="0 0 15 15" version="1.1" xmlns="http://www.w3.org/2000/svg" xmlns:xlink="http://www.w3.org/1999/xlink">
    <!-- Generator: Sketch 49.1 (51147) - http://www.bohemiancoding.com/sketch -->
    <title>instagram</title>
    <desc>Created with Sketch.</desc>
    <defs></defs>
    <g id="Symbols" stroke="none" stroke-width="1" fill="none" fill-rule="evenodd">
        <g id="Header" transform="translate(-1433.000000, -1.000000)" fill="#010101">
            <g id="Group-3">
                <g id="Group-2" transform="translate(1406.000000, 0.000000)">
                    <g id="instagram" transform="translate(27.000000, 1.000000)">
                        <g id="Shape">
                            <path d="M7.42875,1.35125 C9.41125,1.35125 9.64875,1.35875 10.4325,1.39625 C12.44375,1.4875 13.38375,2.4525 13.4775,4.47 C13.51375,5.26 13.52,5.49875 13.52,7.5 C13.52,9.505 13.5125,9.74125 13.47625,10.53125 C13.38375,12.54625 12.44625,13.51375 10.43125,13.60625 C9.6475,13.6425 9.41375,13.64875 7.4275,13.64875 C5.445,13.64875 5.20875,13.6425 4.42625,13.605 C2.4075,13.51375 1.4725,12.54375 1.38,10.53 C1.34625,9.74 1.33875,9.505 1.33875,7.5 C1.33875,5.4975 1.34625,5.26 1.38125,4.46875 C1.47375,2.4525 2.4125,1.4875 4.4275,1.395 C5.21125,1.35875 5.44625,1.35125 7.42875,1.35125 Z M7.42875,0 C5.41125,0 5.15875,0.00875 4.36625,0.045 C1.66875,0.17 0.16875,1.68125 0.045,4.4075 C0.0075,5.2075 0,5.46375 0,7.5 C0,9.5375 0.00875,9.7925 0.045,10.59375 C0.16875,13.31625 1.665,14.83125 4.36625,14.955 C5.15875,14.99125 5.41125,15 7.42875,15 C9.44875,15 9.7,14.99125 10.49375,14.955 C13.18875,14.83 14.69,13.31875 14.815,10.59375 C14.84875,9.7925 14.85875,9.53625 14.85875,7.5 C14.85875,5.4625 14.84875,5.20875 14.815,4.4075 C14.6925,1.6875 13.19375,0.17 10.49375,0.045 C9.7,0.01 9.44875,0 7.42875,0 Z M7.42875,3.64875 C5.32375,3.64875 3.61375,5.37375 3.61375,7.5 C3.61375,9.6275 5.3225,11.3525 7.42875,11.3525 C9.53625,11.3525 11.2425,9.6275 11.2425,7.5 C11.2425,5.3725 9.53625,3.64875 7.42875,3.64875 Z M7.42875,10 C6.055,9.9925 4.9475,8.875 4.95375,7.5 C4.95375,6.12 6.06125,5 7.42875,5 C8.80125,5.005 9.9125,6.12375 9.9075,7.4975 C9.9075,7.4975 9.9075,7.49875 9.9075,7.5 C9.9075,8.88125 8.79625,10 7.42875,10 Z M11.39375,2.5975 C10.90125,2.6 10.5,3.0025 10.5025,3.4975 C10.5025,3.99375 10.9025,4.3975 11.39375,4.3975 C11.89,4.39625 12.2875,3.9925 12.285,3.49875 C12.285,3.49875 12.285,3.49875 12.285,3.4975 C12.29,3.0025 11.89,2.6 11.39625,2.5975 L11.39375,2.5975 Z" fill-rule="nonzero"></path>
                        </g>
                    </g>
                </g>
            </g>
        </g>
    </g>
</svg>