<?xml version="1.0" encoding="utf-8"?>
<!-- Generator: Adobe Illustrator 22.0.0, SVG Export Plug-In . SVG Version: 6.00 Build 0)  -->
<svg version="1.1" id="Layer_1" xmlns="http://www.w3.org/2000/svg" xmlns:xlink="http://www.w3.org/1999/xlink" x="0px" y="0px"
	 viewBox="0 0 15 15" style="enable-background:new 0 0 15 15;" xml:space="preserve">
<style type="text/css">
	.st0{fill:#FFFFFF;}
</style>
<title>instagram</title>
<desc>Created with Sketch.</desc>
<g id="Symbols">
	<g id="Header" transform="translate(-1433.000000, -1.000000)">
		<g id="Group-3">
			<g id="Group-2" transform="translate(1406.000000, 0.000000)">
				<g id="instagram" transform="translate(27.000000, 1.000000)">
					<g id="Shape">
						<path class="st0" d="M7.4,1.4c2,0,2.2,0,3,0c2,0.1,3,1.1,3,3.1c0,0.8,0,1,0,3c0,2,0,2.2,0,3c-0.1,2-1,3-3,3.1c-0.8,0-1,0-3,0
							c-2,0-2.2,0-3,0c-2-0.1-3-1.1-3-3.1c0-0.8,0-1,0-3c0-2,0-2.2,0-3c0.1-2,1-3,3-3.1C5.2,1.4,5.4,1.4,7.4,1.4z M7.4,0
							c-2,0-2.3,0-3.1,0C1.7,0.2,0.2,1.7,0,4.4c0,0.8,0,1.1,0,3.1c0,2,0,2.3,0,3.1c0.1,2.7,1.6,4.2,4.3,4.4c0.8,0,1,0,3.1,0
							c2,0,2.3,0,3.1,0c2.7-0.1,4.2-1.6,4.3-4.4c0-0.8,0-1.1,0-3.1c0-2,0-2.3,0-3.1c-0.1-2.7-1.6-4.2-4.3-4.4C9.7,0,9.4,0,7.4,0z
							 M7.4,3.6c-2.1,0-3.8,1.7-3.8,3.9c0,2.1,1.7,3.9,3.8,3.9c2.1,0,3.8-1.7,3.8-3.9S9.5,3.6,7.4,3.6z M7.4,10
							C6.1,10,4.9,8.9,5,7.5C5,6.1,6.1,5,7.4,5c1.4,0,2.5,1.1,2.5,2.5c0,0,0,0,0,0C9.9,8.9,8.8,10,7.4,10z M11.4,2.6
							c-0.5,0-0.9,0.4-0.9,0.9c0,0.5,0.4,0.9,0.9,0.9c0.5,0,0.9-0.4,0.9-0.9c0,0,0,0,0,0C12.3,3,11.9,2.6,11.4,2.6L11.4,2.6z"/>
					</g>
				</g>
			</g>
		</g>
	</g>
</g>
</svg>
