<?xml version="1.0" encoding="UTF-8"?>
<svg width="329px" height="33px" viewBox="0 0 329 33" version="1.1" xmlns="http://www.w3.org/2000/svg" xmlns:xlink="http://www.w3.org/1999/xlink">
    <!-- Generator: Sketch 49.1 (51147) - http://www.bohemiancoding.com/sketch -->
    <title>logo</title>
    <desc>Created with Sketch.</desc>
    <defs></defs>
    <g id="Symbols" stroke="none" stroke-width="1" fill="none" fill-rule="evenodd">
        <g id="Header" transform="translate(-560.000000, -66.000000)" fill="#2A3A83">
            <g id="logo" transform="translate(560.000000, 66.000000)">
                <g>
                    <path d="M0,0.937508 C0.443798128,0.955988 0.886716578,0.996028 1.15633824,1.062908 C2.7921016,1.409628 3.19675401,2.292268 3.2878008,3.845908 C3.37312968,5.212548 3.37356952,6.407588 3.37356952,12.899348 L3.37356952,20.395628 C3.37356952,24.334068 3.37181016,27.719868 3.15760829,29.517268 C3.02081818,30.509028 2.83256684,31.948268 1.61729011,32.192028 C1.30280481,32.261548 0.907828877,32.331068 0.431042781,32.358348 C2.13586096,32.346468 4.6081992,32.230748 5.53977941,32.230748 C6.60067246,32.230748 9.11127674,32.348668 11.7934184,32.358348 C11.2040334,32.331948 10.5174439,32.264188 10.0415374,32.196428 C8.45591578,31.984788 8.17573797,30.747068 8.04862433,29.554228 C7.83442246,27.713268 7.83310294,24.333188 7.83310294,20.395628 L7.83310294,3.358828 C7.83310294,2.858988 7.97693048,2.364868 8.42864572,2.184028 C8.8786016,2.033988 9.58586364,1.989988 10.2231912,1.989988 C11.2620922,1.989988 13.113377,2.258828 14.7416631,3.751308 C17.2593048,5.999708 17.3815802,9.006228 17.3815802,10.429188 C17.3815802,14.961188 13.9125655,17.845828 11.2871631,17.845828 C10.9163783,17.845828 10.6946992,17.869588 10.5675856,17.903028 C10.7734305,17.945708 10.9194572,17.951868 11.065484,17.957148 L11.5004853,17.961988 C17.3402353,17.961988 21.5855668,13.869108 21.5855668,8.043948 C21.5855668,5.913468 20.4547393,4.094948 19.578139,3.257628 C17.5421217,1.347148 14.6101511,0.936188 11.9258102,0.936188 C9.96764439,0.936188 7.49838503,1.063788 5.75266176,1.063788 C4.62667246,1.063788 2.17016845,0.950268 0,0.937508" id="Fill-1"></path>
                    <path d="M56.1208464,26.583436 L56.0935763,26.784076 C56.0003303,27.666716 55.4588878,28.939636 54.885337,29.561796 C53.6823758,30.861116 51.8209747,30.879156 49.6178183,30.879156 C46.3141833,30.879156 45.0588811,30.596236 44.2104306,29.846916 C43.6192862,29.340036 43.4046445,28.232556 43.2960041,26.759876 C43.1834052,25.241876 43.1829654,23.134276 43.1829654,20.395276 L43.1829654,12.899436 C43.1829654,6.407676 43.1834052,5.212636 43.2687341,3.845996 C43.356702,2.304676 43.7380429,1.322596 45.1653223,1.058596 C45.530829,0.997876 45.9825443,0.957396 46.3867568,0.938036 C44.6696231,0.953876 41.922825,1.063876 40.9745309,1.063876 C39.8810897,1.063876 37.3995148,0.948596 35.4378303,0.937156 C35.8108143,0.955636 36.1530095,0.996116 36.4213116,1.062996 C38.0566352,1.409276 38.4612876,2.292796 38.553214,3.845996 C38.6381031,5.212196 38.6389828,6.407676 38.6389828,12.899436 L38.6389828,20.395276 C38.6389828,24.334156 38.6367836,27.719956 38.4225817,29.517356 C38.2857916,30.509116 38.0971004,31.948356 36.8822635,32.191676 C36.5690977,32.261636 36.1767608,32.330716 35.7026138,32.357996 C36.5075202,32.350516 37.4932007,32.312236 38.3693611,32.274396 C39.3906686,32.274396 40.3358838,32.230836 40.804313,32.230836 C42.5557541,32.230836 44.0890349,32.273956 46.0115737,32.359316 C47.9253156,32.401116 50.1324306,32.486476 53.1941539,32.486476 C54.3227822,32.486476 54.836075,32.426636 55.104817,32.299916 C55.2952675,32.210596 55.3757582,32.085196 55.5015523,31.622756 C55.8305523,30.430356 56.1265643,27.272036 56.1265643,26.827636 L56.1208464,26.583436 Z" id="Fill-3"></path>
                    <path d="M106.634046,5.92504 C107.068168,5.13832 106.839451,5.08332 107.480737,4.1206 C108.246938,2.9964 109.490804,2.79796 111.921358,2.71436 L118.666297,2.5322 L118.666297,20.39532 C118.666297,24.33376 118.664978,27.71296 118.451656,29.51124 C118.347414,30.51928 118.131892,31.94752 116.910458,32.19172 C116.595973,32.26124 116.201876,32.3312 115.72465,32.35848 C117.429029,32.3466 119.901367,32.35848 120.832507,32.35848 C121.975211,32.35848 124.488894,32.34836 127.171035,32.35848 C126.58165,32.33208 125.895501,32.26388 125.420474,32.19612 C123.834852,31.98492 123.553795,30.74676 123.426241,29.55392 C123.212039,27.71296 123.21072,24.33332 123.21072,20.39532 L123.21072,2.53396 L128.973498,2.67124 C132.780309,2.75704 134.265208,3.96572 134.376487,5.41288 L134.419592,5.88368 C134.432787,6.08696 134.45038,6.2172 134.467094,6.29904 L134.496124,6.04604 C134.498323,4.91216 134.621918,2.0284 134.621918,1.14356 C134.621918,0.8866 134.613121,0.73436 134.598166,0.64504 L134.347458,0.68948 L133.584336,0.84568 C132.934253,0.93192 131.968805,1.06392 130.582431,1.06392 L113.722061,1.06392 C112.303138,1.06392 110.675292,0.97856 109.428347,0.8492 C108.84424,0.803 108.435629,0.66176 108.128181,0.53416 L107.770592,0.38104 C107.620606,0.42944 107.558589,0.5984 107.50053,0.85096 C107.412122,1.2056 106.617332,5.03492 106.617332,5.6584 C106.617332,5.78952 106.625689,5.87356 106.634046,5.92504" id="Fill-5"></path>
                    <path d="M194.422682,32.358744 C193.857048,32.332784 193.231157,32.256224 192.64617,32.049864 C191.508745,31.650344 190.981377,30.228704 190.898247,26.965224 L190.334373,7.964704 L191.113329,8.677064 C196.387885,14.249664 194.523845,12.756744 201.343997,19.523064 C205.767024,23.908104 211.212678,29.488624 213.891741,32.043704 C214.128814,32.279984 214.700606,32.869584 215.068751,32.869584 C215.247766,32.627144 215.233691,32.212664 215.233691,31.935024 L215.701681,5.055424 C215.743905,2.688664 216.079063,1.490544 217.565281,1.066384 C217.845019,0.995984 218.084731,0.959904 218.305971,0.941864 C216.459524,0.950664 214.998377,0.941864 214.557218,0.941864 C213.663464,0.941864 211.620849,0.936584 209.408456,0.936584 C209.083854,0.936584 208.742539,0.925144 208.983131,0.925144 C209.739655,0.925144 210.678713,0.926464 211.385095,1.208944 C212.652713,1.738704 213.031415,2.801304 213.073199,5.395104 L213.570218,25.713864 L212.74288,24.916584 C211.388614,23.641024 203.880112,15.709144 203.263457,15.091384 C197.047205,8.910264 190.577604,1.964424 190.062112,1.410024 C189.884857,1.223464 189.05488,0.211904 188.760627,0.211904 C188.602725,0.363704 188.592169,1.124024 188.592169,1.274504 L188.209508,26.492224 C188.169043,30.031144 188.056444,31.696544 186.611131,32.141384 C186.138304,32.275584 185.580147,32.336304 185.093685,32.358744 C187.205354,32.349064 189.075112,32.358744 189.446337,32.358744 C190.229251,32.358744 191.839064,32.349064 194.422682,32.358744" id="Fill-7"></path>
                    <path d="M274.373816,0.936232 C274.773191,0.956472 275.18532,1.007512 275.558304,1.108712 C276.743672,1.385032 277.203744,2.345112 277.292152,3.845952 C277.377041,5.212152 277.377481,6.407632 277.377481,12.899392 L277.377481,20.395672 C277.377481,24.547952 277.376161,27.926712 277.162839,29.724112 C277.037485,30.938072 276.772262,31.961512 275.621641,32.192072 C275.303637,32.262472 274.903383,32.332432 274.41956,32.358832 L279.543251,32.358832 L285.853629,32.358832 C285.261165,32.333312 284.567978,32.265112 284.088553,32.196032 C282.539438,31.989672 282.186247,30.974152 282.052096,29.763712 C281.880558,27.924952 281.879239,24.543552 281.879239,20.395672 L281.879239,12.899392 C281.879239,6.407632 281.880119,5.212592 281.965447,3.845952 C282.053855,2.305072 282.435636,1.322552 283.861596,1.058992 C284.242937,0.995632 284.53543,0.954272 284.833201,0.936232 L279.798798,0.936232 L274.373816,0.936232 Z" id="Fill-9"></path>
                    <path d="M328.601066,32.3488 C328.209608,32.32328 327.782524,32.27268 327.362037,32.18864 C326.310381,31.88944 324.990422,31.17092 323.348061,27.29672 C320.624135,20.84676 313.8119,3.47072 312.790152,1.1286 C312.748807,1.03356 312.333599,0 312.08289,0 C311.80887,0 311.28942,1.36796 311.250714,1.46036 L300.564811,28.20708 C299.716801,30.32744 298.834483,31.99504 296.633965,32.28192 C296.388975,32.31272 296.01731,32.34308 295.680393,32.35892 C297.858918,32.35452 300.126291,32.35892 300.586364,32.35892 C301.906322,32.35892 303.737814,32.3818 305.100437,32.35892 C305.165973,32.35804 305.095159,32.34572 304.989598,32.34572 L304.51589,32.33384 C303.020876,32.33384 302.454802,31.68088 302.454802,30.66052 C302.454802,30.08104 302.684398,29.01052 303.1194,27.92196 L305.417561,21.83456 L310.398745,8.58836 C310.481434,8.28872 310.656491,7.95256 311.018479,7.95256 C311.348358,7.95256 311.501422,8.22712 311.573556,8.49112 L316.578491,22.0858 L319.852656,30.81584 C320.115241,31.44548 319.844739,32.0848 319.181021,32.27444 C319.100971,32.28236 319.447124,32.28192 319.809992,32.28192 C323.212151,32.36684 326.305543,32.35892 327.836624,32.35892 C328.139234,32.35892 328.391262,32.35584 328.601066,32.3488" id="Fill-11"></path>
                    <path d="M229.190197,0.937288 C231.360805,0.950048 233.816429,1.064448 234.942419,1.064448 C236.261937,1.064448 238.944519,0.936408 241.499107,0.936408 C246.858552,0.936408 253.785146,0.956208 258.292182,5.672128 C260.359868,7.822848 262.314075,11.265408 262.314075,16.222008 C262.314075,21.475608 260.105201,25.469928 257.784607,27.832728 C255.895496,29.763008 251.462793,32.351968 243.729094,32.443488 C242.206369,32.461528 240.932154,32.447008 238.862269,32.447008 C237.251137,32.443488 235.801425,32.443488 234.729536,32.443488 C234.261107,32.443488 233.243318,32.444368 232.292385,32.447008 C232.292385,32.447008 230.432744,32.436008 229.627397,32.443488 C230.101544,32.416208 230.494761,32.260888 230.807927,32.191808 C232.022764,31.948928 232.211015,30.509248 232.347365,29.517928 C232.561567,27.720528 232.564206,24.333848 232.564206,20.395848 L232.564206,12.899568 C232.564206,6.407368 232.563326,5.212328 232.477998,3.845688 C232.386511,2.292928 231.982298,1.409848 230.346095,1.062688 C230.076913,0.995808 229.633995,0.955768 229.190197,0.937288 M237.150853,3.693888 C237.107749,5.143688 237.107749,8.848928 237.107749,12.218008 L237.107749,17.585128 C237.107749,22.110528 237.151293,25.395568 237.193957,26.206488 C237.226066,26.992768 237.211551,28.729008 237.663706,29.351608 C238.330063,30.325768 240.161115,31.219848 243.558876,31.219848 C247.96167,31.219848 251.027352,30.652688 253.675626,28.357208 C256.535903,25.898488 257.386113,21.869848 257.386113,17.456648 C257.386113,11.932008 255.079594,8.339848 253.179047,6.527048 C249.152316,2.673968 244.171572,2.160488 240.817796,2.160488 C240.006292,2.160488 238.353814,2.275768 237.892863,2.491808 C237.349221,2.732928 237.150853,3.093728 237.150853,3.693888" id="Fill-13"></path>
                    <path d="M174.041528,32.3488 C173.650071,32.32328 173.223426,32.27268 172.8025,32.18864 C171.750843,31.88944 170.430885,31.17092 168.788524,27.29672 C166.064157,20.84676 159.252802,3.47072 158.231055,1.1286 C158.18927,1.03356 157.773621,0 157.523793,0 C157.249772,0 156.729882,1.36796 156.691176,1.46036 L146.005274,28.20708 C145.157703,30.32744 144.274945,31.99504 142.074428,32.28192 C141.829437,32.31272 141.458212,32.34308 141.120855,32.35892 C143.299381,32.35452 145.567194,32.35892 146.027266,32.35892 C147.346784,32.35892 149.178276,32.3818 150.54046,32.35892 C150.606436,32.35804 150.535621,32.34572 150.4305,32.34572 L149.956353,32.33384 C148.461338,32.33384 147.895264,31.68088 147.895264,30.66052 C147.895264,30.08104 148.124861,29.01052 148.560302,27.92196 L150.858464,21.83456 L155.839647,8.58836 C155.922337,8.28872 156.097393,7.95256 156.458501,7.95256 C156.78926,7.95256 156.942325,8.22712 157.014018,8.49112 L162.018953,22.0858 L165.292679,30.81584 C165.556143,31.44548 165.285202,32.0848 164.621924,32.27444 C164.541873,32.28236 164.888026,32.28192 165.250454,32.28192 C168.653053,32.36684 171.746005,32.35892 173.276647,32.35892 C173.579696,32.35892 173.832164,32.35584 174.041528,32.3488" id="Fill-15"></path>
                    <path d="M100.408601,32.3488 C100.017144,32.32328 99.5904992,32.27268 99.1695727,32.18864 C98.1179163,31.88944 96.7983976,31.17092 95.1560366,27.29672 C92.4316703,20.84676 85.6198749,3.47072 84.5981275,1.1286 C84.5563428,1.03356 84.1411342,0 83.8904257,0 C83.6164056,0 83.0965152,1.36796 83.058689,1.46036 L72.3723468,28.20708 C71.5243361,30.32744 70.6420179,31.99504 68.4410607,32.28192 C68.1969497,32.31272 67.8248455,32.34308 67.4879283,32.35892 C69.6664537,32.35452 71.9342666,32.35892 72.3938989,32.35892 C73.7147372,32.35892 75.5457893,32.3818 76.9079725,32.35892 C76.9739484,32.35804 76.9026944,32.34572 76.7971329,32.34572 L76.3234257,32.33384 C74.828411,32.33384 74.2623374,31.68088 74.2623374,30.66052 C74.2623374,30.08104 74.4919337,29.01052 74.9273749,27.92196 L77.2255366,21.83456 L82.2062799,8.58836 C82.2894096,8.28872 82.4640259,7.95256 82.8255741,7.95256 C83.1563334,7.95256 83.3089578,8.22712 83.3810914,8.49112 L88.3860259,22.0858 L91.6606316,30.81584 C91.9232158,31.44548 91.6527144,32.0848 90.9889965,32.27444 C90.9089457,32.28236 91.2550995,32.28192 91.6175273,32.28192 C95.0201262,32.36684 98.1135179,32.35892 99.6437198,32.35892 C99.9467693,32.35892 100.198797,32.35584 100.408601,32.3488" id="Fill-17"></path>
                </g>
            </g>
        </g>
    </g>
</svg>