<svg xmlns="http://www.w3.org/2000/svg" width="41" height="43" viewBox="0 0 41 43">
    <g fill="#000" fill-rule="evenodd">
        <path d="M22.398 16.627h-4.796v-4.801a.802.802 0 0 0-1.602 0v4.801h-4.801a.803.803 0 0 0-.801.801c0 .441.36.801.801.801H16v4.797a.801.801 0 0 0 1.602 0v-4.797h4.796a.802.802 0 0 0 0-1.602z"/>
        <path d="M40.578 41.647L28.691 29.283c3.032-3.043 4.911-7.234 4.911-11.855 0-9.266-7.54-16.801-16.801-16.801C7.535.627 0 8.162 0 17.428c0 9.262 7.535 16.801 16.801 16.801 4.066 0 7.797-1.457 10.707-3.867l11.914 12.394a.807.807 0 0 0 1.133.02.8.8 0 0 0 .023-1.129zM1.602 17.428c0-8.383 6.816-15.199 15.199-15.199C25.18 2.229 32 9.045 32 17.428c0 8.379-6.82 15.199-15.199 15.199-8.383 0-15.199-6.82-15.199-15.199z"/>
    </g>
</svg>
